<?xml version="1.0" standalone="no"?>
<!DOCTYPE svg PUBLIC "-//W3C//DTD SVG 20010904//EN"
 "http://www.w3.org/TR/2001/REC-SVG-20010904/DTD/svg10.dtd">
<svg version="1.0" xmlns="http://www.w3.org/2000/svg"
 width="256" height="256" viewBox="0 0 256.000000 256.000000"
 preserveAspectRatio="xMidYMid meet">

<g transform="translate(0.000000,256.000000) scale(0.100000,-0.100000)"
fill="#000000" stroke="none">
<path d="M182 2542 c-63 -26 -109 -78 -138 -156 -67 -186 11 -392 196 -512 25
-16 47 -31 50 -35 3 -3 13 -10 22 -15 11 -6 -8 -9 -60 -9 -132 -1 -229 -66
-247 -166 -13 -69 44 -154 120 -179 25 -8 34 -18 39 -42 7 -34 68 -98 119
-124 18 -9 33 -18 35 -19 1 -1 -9 -26 -24 -55 -81 -161 -84 -422 -9 -628 18
-50 73 -140 99 -161 16 -13 15 -15 -2 -35 -39 -44 -62 -95 -68 -153 -9 -84 13
-120 56 -93 12 7 12 12 2 22 -20 20 -14 56 19 122 46 90 36 89 126 16 13 -10
142 -81 222 -120 l53 -27 -44 -47 c-44 -45 -88 -61 -103 -36 -3 6 -13 10 -21
10 -11 0 -14 -9 -12 -37 7 -86 117 -76 178 15 17 26 33 57 36 69 6 23 8 23
113 17 80 -4 120 -2 164 10 173 46 374 253 432 445 l18 61 38 -68 c48 -87 107
-142 152 -142 39 0 57 15 57 48 0 22 -3 23 -47 20 l-48 -3 -27 50 c-15 28 -47
73 -71 100 l-43 50 8 95 c13 159 11 148 28 114 50 -100 133 -226 171 -261 51
-48 132 -78 183 -69 86 16 140 87 133 176 -9 123 -89 220 -314 378 -15 11 -12
12 27 7 25 -2 79 -11 120 -19 276 -52 267 -51 389 -15 115 34 207 99 230 162
18 47 13 116 -11 158 -30 54 -82 92 -166 123 -61 22 -90 26 -177 26 -91 0
-116 -4 -207 -34 -57 -19 -121 -44 -143 -56 -47 -24 -12 -17 53 11 73 31 209
59 290 59 135 0 271 -53 321 -125 76 -111 33 -205 -129 -283 -74 -36 -76 -36
-200 -35 -94 0 -146 6 -210 22 -47 12 -129 26 -182 30 -54 4 -101 10 -104 14
-4 3 7 28 23 54 38 63 59 118 68 176 4 26 10 47 14 47 12 0 -7 215 -23 267 -9
29 -43 88 -76 132 l-59 80 32 23 c84 63 253 109 328 90 70 -18 109 21 79 79
-15 28 -69 25 -115 -7 -21 -14 -82 -40 -135 -59 -92 -31 -191 -80 -198 -97 -6
-14 -20 -8 -54 23 -44 40 -127 87 -169 95 -53 10 -67 21 -74 56 -9 48 -35 129
-51 160 -8 15 -14 57 -14 101 0 61 -4 79 -21 101 -27 34 -68 32 -86 -3 -14
-30 2 -76 48 -133 16 -21 36 -55 43 -76 8 -22 23 -57 35 -80 12 -23 21 -51 21
-63 0 -18 -4 -20 -22 -14 -13 3 -68 9 -123 12 -123 7 -194 -9 -323 -70 -12 -6
-41 -28 -64 -49 -23 -21 -42 -37 -43 -36 -1 2 -10 32 -20 68 -27 96 -117 278
-167 336 -102 120 -229 163 -346 116z m215 -29 c108 -51 242 -262 293 -460 13
-49 12 -56 -7 -90 -35 -62 -63 -154 -63 -205 0 -26 -2 -48 -5 -48 -3 0 -29 14
-58 30 -30 17 -60 30 -68 30 -19 1 -123 44 -140 59 -8 7 -43 31 -79 54 -89 57
-139 110 -182 192 -58 111 -60 227 -7 339 24 52 84 105 132 117 45 11 142 2
184 -18z m883 -381 c25 -11 76 -32 113 -46 127 -48 211 -114 286 -227 54 -81
75 -154 76 -264 0 -187 -66 -354 -165 -412 -50 -29 -141 -52 -212 -53 -130 -1
-303 76 -469 207 -60 47 -177 175 -220 241 -65 98 -70 137 -35 255 15 50 36
107 46 126 45 84 126 142 250 178 100 30 261 28 330 -5z m-868 -356 c37 -8 98
-28 137 -46 55 -26 70 -37 74 -58 3 -15 9 -35 12 -44 5 -13 -5 -24 -42 -47
-26 -17 -59 -38 -72 -48 -45 -34 -292 -81 -291 -55 1 4 7 18 14 31 17 32 10
51 -19 51 -25 0 -49 -24 -59 -57 -9 -28 -11 -28 -61 0 -47 27 -85 79 -85 119
0 34 30 95 59 122 11 10 45 28 73 38 59 21 142 19 260 -6z m20 -330 c-22 -24
-45 -53 -51 -65 -15 -28 -54 -27 -106 2 -29 16 -41 30 -43 50 -3 27 -3 27 55
27 32 0 81 7 108 14 77 22 80 19 37 -28z m67 -168 c9 -24 127 -149 196 -208
99 -86 201 -150 238 -150 9 0 19 -4 22 -10 3 -5 15 -10 25 -10 10 0 40 -9 66
-21 64 -27 213 -66 300 -78 53 -8 85 -7 138 4 38 8 70 14 71 12 1 -1 -1 -33
-6 -72 -8 -74 -42 -179 -62 -192 -7 -4 -50 -20 -97 -35 -68 -23 -102 -28 -181
-28 -85 0 -112 5 -220 39 -170 54 -196 64 -318 124 -184 91 -280 164 -371 282
-49 63 -52 106 -16 210 47 140 44 135 84 136 21 1 51 5 67 9 49 12 55 11 64
-12z m1220 -88 c19 0 31 -3 28 -6 -3 -4 13 -20 36 -37 23 -17 46 -34 52 -38
178 -140 224 -202 233 -316 4 -56 2 -67 -21 -102 -32 -48 -79 -66 -145 -56
-91 13 -155 79 -252 260 -29 55 -57 107 -61 115 -12 22 -28 135 -20 138 4 1
23 13 42 27 19 14 43 23 54 20 11 -3 35 -5 54 -5z"/>
<path d="M935 1902 c-46 -32 -71 -107 -40 -118 39 -15 111 80 84 112 -13 15
-28 18 -44 6z"/>
<path d="M1124 1685 c-22 -87 106 -164 166 -100 13 14 19 25 13 25 -6 0 -16
-7 -23 -15 -17 -20 -49 -19 -86 4 -23 14 -34 31 -43 65 -13 52 -18 56 -27 21z"/>
<path d="M1537 1592 c-17 -19 -37 -65 -37 -87 0 -7 8 -16 17 -19 26 -10 64 34
70 82 5 37 3 42 -14 42 -11 0 -27 -8 -36 -18z"/>
</g>
</svg>
